<svg width="30" height="30" viewBox="0 0 30 30" fill="none" xmlns="http://www.w3.org/2000/svg">
<rect width="30" height="30" rx="8" fill="white"/>
<path d="M15 6.09375C12.6379 6.09375 10.3726 7.03208 8.70233 8.70233C7.03208 10.3726 6.09375 12.6379 6.09375 15C6.09375 17.3621 7.03208 19.6274 8.70233 21.2977C10.3726 22.9679 12.6379 23.9063 15 23.9062C17.3621 23.9062 19.6274 22.9679 21.2977 21.2977C22.9679 19.6274 23.9062 17.3621 23.9062 15C23.9062 12.6379 22.9679 10.3726 21.2977 8.70233C19.6274 7.03208 17.3621 6.09375 15 6.09375V6.09375Z" fill="#039BE5"/>
<path d="M16.2056 17.3606H18.5104L18.8723 15.0192H16.2051V13.7395C16.2051 12.7669 16.5229 11.9044 17.4328 11.9044H18.8948V9.86108C18.6379 9.8264 18.0947 9.75046 17.0681 9.75046C14.9245 9.75046 13.6678 10.8825 13.6678 13.4616V15.0192H11.4642V17.3606H13.6678V23.7961C14.1042 23.8617 14.5462 23.9062 15 23.9062C15.4101 23.9062 15.8105 23.8687 16.2056 23.8153V17.3606Z" fill="white"/>
</svg>
